<svg xmlns="http://www.w3.org/2000/svg" width="102" height="102" viewBox="0 0 102 102"><g transform="translate(-36 -428)"><circle cx="51" cy="51" r="51" transform="translate(36 428)" fill="#f6faff"/><g transform="translate(19.456 419.043)"><path d="M79.375,34a1.555,1.555,0,0,1,1.478-2.032,1.629,1.629,0,0,1,1.4.875c.676,1.026,1.312,2.073,1.986,3.1a20.871,20.871,0,0,1,11.8-.023,37.317,37.317,0,0,1,2.578-3.671,1.559,1.559,0,0,1,2.368,1.735c-.56,1.128-1.37,2.108-2.032,3.175a13.139,13.139,0,0,1,6.788,10.36q-15.566.009-31.136,0a13.13,13.13,0,0,1,6.733-10.331c-.636-1.073-1.417-2.064-1.968-3.187m3.907,6.826a1.556,1.556,0,1,0,2.213,1.642,1.567,1.567,0,0,0-2.213-1.642M95.773,40.8a1.558,1.558,0,1,0,2.172,1.607A1.57,1.57,0,0,0,95.773,40.8Z" transform="translate(-22.637)" fill="#7cb342"/><path d="M44.66,96.171a3.109,3.109,0,0,1,4.2,2.686c.052,4.677.009,9.357.023,14.034a3.107,3.107,0,1,1-6.208.286c-.029-4.668-.009-9.337-.009-14A3.129,3.129,0,0,1,44.66,96.171Z" transform="translate(0 -45.336)" fill="#7cb342"/><path d="M74.649,96h31.1c-.006,7.774.012,15.544-.006,23.318A3.089,3.089,0,0,1,103,122.406c-1.155.079-2.312.012-3.467.032-.02,2.665.035,5.33-.023,8a3.1,3.1,0,0,1-6.179-.026c-.05-2.656,0-5.316-.02-7.972-2.07,0-4.141.006-6.214,0-.029,2.656.029,5.313-.023,7.966a3.1,3.1,0,0,1-6.182.032c-.055-2.662,0-5.33-.02-7.992-1.615-.137-3.429.391-4.872-.551a3.2,3.2,0,0,1-1.35-2.849Q74.655,107.518,74.649,96Z" transform="translate(-22.658 -45.369)" fill="#7cb342"/><path d="M194.156,96.142a3.112,3.112,0,0,1,3.616,1.373,4.609,4.609,0,0,1,.449,2.551c-.029,4.38.017,8.756-.02,13.136a3.1,3.1,0,0,1-6.193,0c-.032-4.671-.012-9.348-.009-14.019A3.119,3.119,0,0,1,194.156,96.142Z" transform="translate(-105.789 -45.363)" fill="#7cb342"/></g></g></svg>