<svg xmlns="http://www.w3.org/2000/svg" width="102" height="102" viewBox="0 0 102 102"><g transform="translate(-163 -428)"><circle cx="51" cy="51" r="51" transform="translate(163 428)" fill="#f6faff"/><g transform="translate(-34.781 316.77)"><path d="M308.562,138.457a14.983,14.983,0,0,1,8.2-4.227c.771,4.606-1.83,9.274-5.506,11.937a10.823,10.823,0,0,1-6.036,1.768A14.974,14.974,0,0,1,308.562,138.457Z" transform="translate(-56.987)" fill="#010101"/><path d="M254.342,178.427a17.761,17.761,0,0,1,8.236-.93,14.028,14.028,0,0,1,8.851,5.362c-1.727,1.6-3.606,3.139-4.75,5.245a12.386,12.386,0,0,0,6.4,17.408,33.362,33.362,0,0,1-6.212,11c-1.783,2.021-4.092,4.024-6.936,4.05-3.559-.009-6.712-2.165-10.281-2.144-3.68-.05-6.836,2.7-10.563,2.174-3.224-.532-5.633-3.065-7.492-5.58a36.647,36.647,0,0,1-6.927-16.855c-.5-4.683-.035-9.68,2.388-13.81a13.744,13.744,0,0,1,6.892-6.021,14.285,14.285,0,0,1,7.177-.482c2.4.35,4.692,1.221,7.083,1.635C250.312,179.875,252.357,179.01,254.342,178.427Z" transform="translate(0 -30.431)" fill="#010101"/></g></g></svg>