<svg xmlns="http://www.w3.org/2000/svg" width="102" height="102" viewBox="0 0 102 102"><g transform="translate(-163 -296)"><circle cx="51" cy="51" r="51" transform="translate(163 296)" fill="#f6faff"/><g transform="translate(190.562 311.784)"><g transform="translate(14.514 0)"><path d="M198.262,1.422c-.02-.447-.259-.994.194-1.305l.383-.027a3.018,3.018,0,0,1,.758,1.068,10.341,10.341,0,0,1,1.118,6.391,10.361,10.361,0,0,1-3.011,5.477,73.24,73.24,0,0,1-6.313,5.545,15.023,15.023,0,0,0-2.192,2.256,3.169,3.169,0,0,0-.636,1.492,14.376,14.376,0,0,0,.429,3.829,36.908,36.908,0,0,0,2.713,7.361c.121.254.257.6.014.827-.205.267-.578.141-.8-.038a30.373,30.373,0,0,1-3.111-2.948,16.776,16.776,0,0,1-3.71-6.063,7.409,7.409,0,0,1,.126-5,14.577,14.577,0,0,1,2.364-3.678c2.374-2.758,5.6-4.535,8.408-6.79a7.522,7.522,0,0,0,2.086-2.464A11.148,11.148,0,0,0,198.262,1.422Z" transform="translate(-183.73 -0.09)" fill="#db380e"/><path d="M257.887,108.505a39.029,39.029,0,0,1,5.087-2.417.507.507,0,0,1,.514.853c-1.751,1.414-3.532,2.8-5.143,4.377a11.739,11.739,0,0,0-2.334,2.85,3.155,3.155,0,0,0-.146,2.791c.566,1.192,1.458,2.2,2.017,3.392a5.942,5.942,0,0,1,.646,3.612,7.706,7.706,0,0,1-1.8,3.511,11.978,11.978,0,0,1-2.315,2.127c-.324.228-.638-.042-.792-.324.2-.767.6-1.465.774-2.239a3.474,3.474,0,0,0-.048-2.649,37.591,37.591,0,0,1-2.319-3.244,10.045,10.045,0,0,1-1.192-5.348,5.8,5.8,0,0,1,1.224-2.749A18.909,18.909,0,0,1,257.887,108.505Z" transform="translate(-242.54 -92.959)" fill="#db380e"/></g><g transform="translate(0 33.303)"><path d="M361.17,270.462a7.787,7.787,0,0,1,5.216-.384,4.612,4.612,0,0,1,2.725,2.84,6.034,6.034,0,0,1,.427,3.037,6.178,6.178,0,0,1-2.649,3.949,20.693,20.693,0,0,1-7.277,3.148c-.463.21-.989-.405-.621-.8.689-.593,1.474-1.066,2.177-1.645a17.669,17.669,0,0,0,3.863-4.047,2.656,2.656,0,0,0,.421-2.223,3.1,3.1,0,0,0-1.886-1.768,9.056,9.056,0,0,0-2.832-.616,4.278,4.278,0,0,1-.792-.125,1.284,1.284,0,0,1-.162-.631A3.64,3.64,0,0,1,361.17,270.462Z" transform="translate(-322.726 -269.773)" fill="#73a1fb"/><path d="M109.761,277.474a32.089,32.089,0,0,1,7.555-.764.508.508,0,0,1,.112.977,25.932,25.932,0,0,0-4.209,1.257,3.866,3.866,0,0,0-1.189.682,26.134,26.134,0,0,0,5.289.627c3.375.106,6.756.094,10.127-.115a53.331,53.331,0,0,0,9.756-1.211.678.678,0,0,1,.678.215c.015.09.042.273.057.363a2.6,2.6,0,0,1-1.039.881,24.667,24.667,0,0,1-7.728,2.664,53.258,53.258,0,0,1-10,.747,41.1,41.1,0,0,1-7.975-.706,10.4,10.4,0,0,1-3.311-1.237,2.317,2.317,0,0,1-1.224-1.76,1.8,1.8,0,0,1,.71-1.555A6.55,6.55,0,0,1,109.761,277.474Z" transform="translate(-101.66 -275.853)" fill="#73a1fb"/><path d="M143.273,337.119a9.085,9.085,0,0,1,3-1.19.509.509,0,0,1,.477.834c-.317.245-.734.382-.921.767a6.84,6.84,0,0,0,2.192.564,47.452,47.452,0,0,0,15.777-1.016c.321-.047.689-.238.989-.028.785.526,1.549,1.088,2.33,1.621.235.153.494.378.43.694-.081.369-.5.419-.805.5a81.536,81.536,0,0,1-10.566,1.718,29.392,29.392,0,0,1-9.809-.568,9.021,9.021,0,0,1-3.126-1.319,1.675,1.675,0,0,1-.734-1.294A1.636,1.636,0,0,1,143.273,337.119Z" transform="translate(-133.084 -327.744)" fill="#73a1fb"/><path d="M159.23,390.057a4.074,4.074,0,0,1,1.749-.133c.1.182.263.375.169.6-.093.169-.21.322-.316.483a28.074,28.074,0,0,0,6.864.835,34.646,34.646,0,0,0,6.415-.705,6.216,6.216,0,0,1,1.657-.215c1.1.627,2.162,1.308,3.24,1.964a.529.529,0,0,1,.164.845,5.209,5.209,0,0,1-1.1.5,29.39,29.39,0,0,1-11.634,1.605,31.451,31.451,0,0,1-6-.836,6.223,6.223,0,0,1-2.776-1.4,1.978,1.978,0,0,1-.4-2.283A3.01,3.01,0,0,1,159.23,390.057Z" transform="translate(-145.843 -375.043)" fill="#73a1fb"/><path d="M70.749,426.247c1.552-.267,3.128-.333,4.694-.482.257,0,.561-.089.773.1a.514.514,0,0,1-.079.835,4.322,4.322,0,0,1-.706.182,19.217,19.217,0,0,0-3.938,1.137,2.967,2.967,0,0,0-.654.409,7.332,7.332,0,0,0,2,.685,65.614,65.614,0,0,0,10.987,1.2,94.193,94.193,0,0,0,17.4-1.026,39.636,39.636,0,0,0,6.1-1.393c.369-.147.822-.267,1.01-.654-.025-.3-.316-.615-.111-.906a.516.516,0,0,1,.748-.143,2.093,2.093,0,0,1,.963,1.8,2.565,2.565,0,0,1-1.561,1.829,32.126,32.126,0,0,1-9.222,2.561c-1.318.167-2.635.336-3.954.483-2.02.13-4.038.338-6.063.348-4.159.135-8.322.052-12.474-.2a36.238,36.238,0,0,1-7.416-1.194,5.9,5.9,0,0,1-2.438-1.372,2.111,2.111,0,0,1-.552-1.977,2.067,2.067,0,0,1,1.119-1.2A10.926,10.926,0,0,1,70.749,426.247Z" transform="translate(-66.199 -406.483)" fill="#73a1fb"/><path d="M175.568,456.5c.251-.261.58-.065.829.085a2.247,2.247,0,0,1-.283,1.221,6.464,6.464,0,0,1-2.443,2.5,17.121,17.121,0,0,1-6.619,2.05,76.131,76.131,0,0,1-11.129.882h-.732A82.214,82.214,0,0,1,139.7,461.7c-.22-.053-.5-.112-.578-.354a.5.5,0,0,1,.433-.7c.537-.027,1.077.027,1.615.036,3.988.143,7.979.205,11.97.212,3.463-.028,6.929-.051,10.382-.346a27.8,27.8,0,0,0,7.758-1.673A14.326,14.326,0,0,0,175.568,456.5Z" transform="translate(-130.082 -433.333)" fill="#73a1fb"/></g></g></g></svg>