<svg xmlns="http://www.w3.org/2000/svg" width="102" height="102" viewBox="0 0 102 102"><g transform="translate(-36 -312)"><circle cx="51" cy="51" r="51" transform="translate(36 312)" fill="#f6faff"/><g transform="translate(59.801 335)"><path d="M11.313,0h.178A1.141,1.141,0,0,1,11.9.149L21.87,5.889c.2.121.408.22.594.357a.892.892,0,0,1,.348.738q0,11.24,0,22.479,4.388-2.523,8.773-5.051,0-5.586,0-11.172a1.508,1.508,0,0,1,.1-.732A1.234,1.234,0,0,1,32.265,12q4.955-2.852,9.91-5.706A1.683,1.683,0,0,1,43,5.959a1.647,1.647,0,0,1,.793.325Q48.85,9.192,53.9,12.1a.915.915,0,0,1,.5.81q0,5.983,0,11.965a.9.9,0,0,1-.456.809q-5.035,2.9-10.074,5.8,0,5.731,0,11.463a.9.9,0,0,1-.46.821Q32.936,49.806,22.46,55.834a1.026,1.026,0,0,1-.549.165,1.358,1.358,0,0,1-.655-.254L.694,43.906a1.569,1.569,0,0,1-.506-.365A.985.985,0,0,1,0,43.094V6.858a.929.929,0,0,1,.459-.688Q5.557,3.232,10.657.3a1.9,1.9,0,0,1,.656-.3M2.638,6.939Q7.02,9.466,11.4,11.989q4.388-2.523,8.772-5.05Q15.791,4.414,11.406,1.89,7.024,4.419,2.638,6.939M34.223,12.9q4.383,2.531,8.771,5.052L51.762,12.9q-4.382-2.529-8.768-5.049-4.386,2.523-8.771,5.046M1.754,42.49Q11.4,48.05,21.057,53.6q0-5.047,0-10.095L11.008,37.823a.933.933,0,0,1-.381-.386,1.413,1.413,0,0,1-.1-.69q0-11.619,0-23.238-4.384-2.53-8.773-5.051,0,17.017,0,34.032M12.283,13.508q0,11.008,0,22.016Q16.671,33,21.056,30.476q.005-11.01,0-22.019-4.386,2.528-8.774,5.051m21.058.907q0,5,0,9.993,4.386,2.53,8.775,5.054,0-5,0-10-4.387-2.525-8.774-5.05m10.53,5.049q-.005,5,0,10,4.388-2.523,8.773-5.05,0-5,0-10-4.386,2.524-8.772,5.048M13.179,37.039q4.374,2.475,8.746,4.953c.466-.252.922-.524,1.384-.784q6.278-3.585,12.556-7.168c1.785-1.025,3.581-2.033,5.36-3.068q-4.383-2.516-8.761-5.041Q22.824,31.49,13.179,37.039m9.632,6.471q0,5.048,0,10.1,9.653-5.556,19.3-11.114,0-5,0-10Q32.464,38,22.812,43.51Z" fill="#ff2d20"/></g></g></svg>