<svg xmlns="http://www.w3.org/2000/svg" width="102" height="102" viewBox="0 0 102 102"><g transform="translate(-36 -165)"><circle cx="51" cy="51" r="51" transform="translate(36 165)" fill="#f6faff"/><g transform="translate(-1718.935 -296.988)"><path d="M114.977,141.89l.047.027a3.746,3.746,0,0,0,1,2,8.618,8.618,0,0,0,1.814,1.51,18.154,18.154,0,0,0,3.741,1.748,40.857,40.857,0,0,0,8.805,1.919,60.169,60.169,0,0,0,8.445.337c-.217.117-.468.039-.7.079-.482.069-.971-.006-1.454.043a1.942,1.942,0,0,0-.03.554v8.371c.007.783-.015,1.567.014,2.349a6.564,6.564,0,0,0-3.276,1.7,6.971,6.971,0,0,0-1.686,2.818,9.058,9.058,0,0,0-.292,4.03,7.067,7.067,0,0,0,1.6,3.491,6.512,6.512,0,0,0,3.578,2.029,1.012,1.012,0,0,1,.271.1l-.176.052a1.327,1.327,0,0,0-.037.283q0,8.212,0,16.424c-.357-.026-.715.009-1.072-.016a.735.735,0,0,0-.412-.061c-.355.01-.711-.007-1.067.018-.1-.01-.19-.018-.285-.026a1.648,1.648,0,0,0-.766-.034c-.166-.008-.332-.012-.5-.022-.106-.112-.263-.07-.392-.031l-.237-.041a1,1,0,0,0-.57-.04l-.174-.035a.564.564,0,0,0-.453-.017l-.054,0-.071-.025a.543.543,0,0,0-.463-.04,1.1,1.1,0,0,1-.46-.017c.072,0,.235.049.248-.055-.094-.063-.21-.012-.31.007a1.8,1.8,0,0,1-.838-.1c.062.023.23.072.224-.039a.262.262,0,0,0-.244.009,1,1,0,0,1-.466-.029l.257-.01,0-.043a4.513,4.513,0,0,1-1.361-.174c-.346-.039-.687-.1-1.028-.17-.09-.019-.18-.027-.27-.037-.206-.073-.431-.077-.638-.149s-.47-.038-.642-.2c-.066-.09-.129-.087-.191.007-.118-.021-.236-.047-.353-.072a.09.09,0,1,0-.164-.063c-.1-.025-.193-.051-.291-.073a.089.089,0,1,0-.166-.057c-.138-.033-.278-.061-.416-.1-.161-.054-.318-.116-.477-.172-.03-.1-.161-.165-.218-.046-.735-.239-1.449-.54-2.169-.821-.281-.155-.584-.261-.873-.4a14.144,14.144,0,0,1-1.715-1,.134.134,0,0,0-.188-.143,3.5,3.5,0,0,1-.581-.449,1.259,1.259,0,0,0-.337-.374l-.08.025a4.807,4.807,0,0,1-.374-.374.137.137,0,0,0-.135-.2c-.041-.046-.082-.09-.125-.133a.141.141,0,0,0-.14-.2,3.485,3.485,0,0,1-.589-1.325l0-.053a.546.546,0,0,0-.034-.46c-.029-.718,0-1.437-.012-2.156q0-19.929,0-39.859m7.857,19.563a3.725,3.725,0,0,0-1.735,2.175,4.079,4.079,0,0,0,.227,2.825,4.549,4.549,0,0,0,1.049,1.3,23.055,23.055,0,0,0,3.252,1.9,2.194,2.194,0,0,1,.971.995,1.319,1.319,0,0,1-.169,1.255,2.051,2.051,0,0,1-1.59.643,5.409,5.409,0,0,1-3.308-1.009c-.171-.095-.3-.266-.491-.319-.024,1-.016,2.009,0,3.012a6.353,6.353,0,0,0,2.721.751,9.281,9.281,0,0,0,3.342-.319,4.041,4.041,0,0,0,2.541-2.087,4.266,4.266,0,0,0-.007-3.342,5.008,5.008,0,0,0-2.029-1.944,25.643,25.643,0,0,1-2.848-1.593,1.558,1.558,0,0,1-.455-1.6,1.6,1.6,0,0,1,1.318-.922,5.446,5.446,0,0,1,3.5.763.512.512,0,0,0,.26.1c-.012-.942.011-1.885-.011-2.827a9.052,9.052,0,0,0-3.092-.545,6.345,6.345,0,0,0-3.446.785m6.4,29.79c-.007.093.224.093.219,0A.184.184,0,0,0,129.239,191.243Z" transform="translate(1669 349.232)" fill="#0072c6"/><path d="M608.956,431.983c.971-.006,1.945-.009,2.916,0l.017.059c-.983,0-1.966.007-2.949,0Z" transform="translate(1207.304 78.097)" fill="#0072c6"/><path d="M606.974,432.928l.057-.018c.005,4.621,0,9.241,0,13.862l0,.059q4.112-.011,8.223,0l-.008.059c-1.7.016-3.391,0-5.087.007-1.062-.009-2.126.018-3.187-.014-.032-1.04,0-2.081-.014-3.122C606.972,440.15,606.957,436.538,606.974,432.928Z" transform="translate(1209.151 77.225)" fill="#0072c6"/><path d="M416.871,476.368a1.515,1.515,0,0,1,.538-.308c.01.287-.027.574-.017.862q-.009,3.5,0,7.006a.734.734,0,0,1-.037.385,3.722,3.722,0,0,1-1.8-2.363,7.247,7.247,0,0,1-.134-2.9A4.249,4.249,0,0,1,416.871,476.368Z" transform="translate(1388.259 36.894)" fill="#0072c6"/><path d="M656.971,604.976c1.674,0,3.35-.014,5.024.007l.012.062c-1.679,0-3.359.017-5.038-.005Z" transform="translate(1162.412 -83.595)" fill="#0072c6"/><path d="M198.305,48.066a14.813,14.813,0,0,0,1.686-.078c.893,0,1.787-.005,2.681,0,.666.133,1.357-.017,2.023.119a4.717,4.717,0,0,1,.751.04c.3.069.606-.012.9.078,1.243.092,2.477.265,3.71.476a27.433,27.433,0,0,1,5.535,1.52,7.976,7.976,0,0,1,2.332,1.39,2.515,2.515,0,0,1,.9,1.533,2.107,2.107,0,0,1-.452,1.321,5.937,5.937,0,0,1-2.037,1.494,4.516,4.516,0,0,1-1.107.459,2.129,2.129,0,0,1-.749-.178,38.365,38.365,0,0,0-10.1-1.722c-.59.012-1.177-.086-1.767-.066h-2.942c-1,.074-2,.078-3,.191-.566.007-1.124.116-1.688.153a34.263,34.263,0,0,0-6.146,1.232c-.472.115-.91.346-1.392.422a10.3,10.3,0,0,1-1.666-.774,8.343,8.343,0,0,1-1.179-.848,2.987,2.987,0,0,1-.717-1.18,1.871,1.871,0,0,1,.305-1.419,5.642,5.642,0,0,1,2.351-1.77,22.919,22.919,0,0,1,5.2-1.589,39.96,39.96,0,0,1,4.638-.657c.239-.068.491-.005.732-.055C197.5,48.064,197.912,48.169,198.305,48.066Z" transform="translate(1604.625 437)" fill="#b8d432"/><g transform="translate(1805.59 491.314)"><path d="M466.237,147.505a5.049,5.049,0,0,0,1.887-2.685c.028.853.007,1.706.013,2.56v37.3c.012.748-.024,1.5.02,2.245-.02.127-.037.254-.061.381a5.011,5.011,0,0,1-.368.9c-.035.061-.071.123-.107.184-.18.284-.439.506-.609.793a9.54,9.54,0,0,0-.732.665,1.96,1.96,0,0,0-.359.252l-.265.19a17.356,17.356,0,0,1-1.852,1.036,18.211,18.211,0,0,1-2.074.905c-.265.084-.531.166-.79.265-.727.23-1.458.459-2.2.625a7.908,7.908,0,0,0-.856.2c-.39.112-.8.156-1.182.279a3.048,3.048,0,0,1-.31-.025.227.227,0,0,0-.211.048c-.425.145-.881.152-1.311.27a.891.891,0,0,1-.383.022c-.065-.025-.24-.087-.238.03a.239.239,0,0,0,.221,0c-.1.117-.307.02-.447.024-.056-.069-.27,0-.133.065l.118-.021c-.118.107-.35,0-.512.026a.186.186,0,0,0-.25.035l-.259.025a.331.331,0,0,0-.331.036c-.086.009-.171.02-.255.031a.307.307,0,0,0-.333.039c-.108.011-.215.023-.321.036a.291.291,0,0,0-.33.031c-.134.016-.267.031-.4.052a.4.4,0,0,0-.449.007c-.111.011-.221.023-.332.033l-.052,0c-.182-.005-.395-.073-.549.054-.187.007-.374,0-.562,0h-.056a2.772,2.772,0,0,0-.951.05c-.365.018-.731,0-1.1.013-.165,0-.331,0-.5.006a3.934,3.934,0,0,0-.562,0q0-8.212,0-16.424a1.325,1.325,0,0,1,.037-.283l.176-.052a1.01,1.01,0,0,0-.271-.1c.342.039.683.082,1.028.093.122,0,.2.1.274.183q1.222,1.385,2.456,2.76c.123.122.228.331.432.307,1.268-.013,2.537.01,3.8-.012-.024-.155-.179-.225-.28-.327q-1.574-1.464-3.154-2.924a4.515,4.515,0,0,1-.493-.468,7.165,7.165,0,0,0,1.685-.928,6.387,6.387,0,0,0,1.9-2.481,8.28,8.28,0,0,0,.645-3.133,7.863,7.863,0,0,0-.911-4.042,6.135,6.135,0,0,0-4.442-3.142,8.674,8.674,0,0,0-2.87.049c-.029-.783-.007-1.567-.014-2.349v-8.371a1.943,1.943,0,0,1,.03-.554c.483-.049.972.026,1.454-.043.233-.041.485.038.7-.079,1.741-.083,3.484-.184,5.215-.407a42.278,42.278,0,0,0,7.195-1.5,17.855,17.855,0,0,0,5.733-2.76m-9.717,16.08-.016.057h-.062l-.057.018c-.017,3.61,0,7.222-.007,10.833.009,1.041-.018,2.082.014,3.122,1.062.032,2.125,0,3.187.014,1.7,0,3.391.009,5.087-.007l.008-.059q-4.111-.011-8.223,0l0-.059c1.13.039,2.262,0,3.393.016,1.613-.009,3.227.019,4.838-.014.027-.849.022-1.7,0-2.55l-.012-.062c-1.674-.02-3.349-.008-5.024-.007v.063l-.066-.006a2.911,2.911,0,0,1-.011-.453q0-5.419,0-10.838l-.114-.007-.017-.059C458.465,163.576,457.492,163.58,456.52,163.585Z" transform="translate(-445.85 -144.82)" fill="#2687cf"/><path d="M446.294,470.65a3.313,3.313,0,0,1,3.676.524,4.575,4.575,0,0,1,1.183,2.715,6.67,6.67,0,0,1-.382,3.4,3.321,3.321,0,0,1-1.858,1.793,3.55,3.55,0,0,1-2.692-.131.734.734,0,0,0,.037-.385q0-3.5,0-7.006c-.01-.288.027-.575.017-.862Z" transform="translate(-446.196 -449.055)" fill="#2687cf"/></g><g transform="translate(1792.063 491.454)"><path d="M248.037,147.153c1-.112,2-.117,3-.191h2.942c.59-.02,1.177.078,1.767.066a38.365,38.365,0,0,1,10.1,1.722,2.129,2.129,0,0,0,.749.178c-.03.087-.143.079-.212.115a31.011,31.011,0,0,1-6.566,1.535,57.15,57.15,0,0,1-13.073.142,31.945,31.945,0,0,1-7.932-1.762c.482-.076.92-.307,1.392-.422a34.262,34.262,0,0,1,6.146-1.232C246.912,147.269,247.47,147.159,248.037,147.153Z" transform="translate(-238.81 -146.96)" fill="#7fba00"/><path d="M286.13,889.89c.34.069.682.131,1.028.17a4.514,4.514,0,0,0,1.361.174l0,.043-.257.01c-.61-.046-1.2-.206-1.81-.286A.82.82,0,0,1,286.13,889.89Z" transform="translate(-283.039 -841.354)" fill="#7fba00"/></g><g transform="translate(1785.387 535.848)"><path d="M136.61,826.525l.08-.026a1.259,1.259,0,0,1,.337.374A1.037,1.037,0,0,1,136.61,826.525Z" transform="translate(-136.61 -826.5)" fill="#1b3b62"/></g></g></g></svg>