<svg xmlns="http://www.w3.org/2000/svg" width="102" height="102" viewBox="0 0 102 102"><g transform="translate(-163 -477)"><circle cx="51" cy="51" r="51" transform="translate(163 477)" fill="#f6faff"/><g transform="translate(184.491 509.422)"><path d="M360.61,13.155c2.543-3.217,5.072-6.447,7.626-9.655q-6.307,9.138-12.643,18.256,3.294,4.536,6.586,9.074c-.435,0-.87,0-1.3,0-2.007-2.749-4-5.51-6-8.261q-3.012,4.128-6.02,8.259c-.428,0-.856,0-1.284,0q3.316-4.537,6.635-9.074-3.09-4.292-6.189-8.581h1.261q2.8,3.879,5.6,7.763Q357.746,17.049,360.61,13.155Z" transform="translate(-320.195 -3.5)"/><path d="M.775,126.066H2.136Q11.368,139.8,20.6,153.547c-.543-.622-1-1.312-1.513-1.962q-2.968-3.943-5.939-7.883-5.617-8.149-11.23-16.3-.027,8.159-.05,16.319c-.362,0-.724,0-1.086,0Q.766,134.894.775,126.066Z" transform="translate(-0.774 -116.391)"/><path d="M189.148,126.064q5.943,0,11.885,0c0,.312,0,.623,0,.935q-5.4,0-10.8,0c0,2.359-.013,4.718.008,7.076,3.381-.009,6.762,0,10.143,0q0,.47,0,.941c-3.381,0-6.762,0-10.143,0-.02,2.588,0,5.177-.008,7.765q5.458,0,10.918,0c0,.313,0,.628,0,.941H189.148Q189.146,134.892,189.148,126.064Z" transform="translate(-174.278 -116.389)"/><path d="M538.583,126.066h13.543q0,.468,0,.936-3.119,0-6.238,0,0,8.359,0,16.718H544.8q0-8.359,0-16.718-3.107,0-6.214,0Q538.582,126.533,538.583,126.066Z" transform="translate(-496.13 -116.391)"/><path d="M762.933,284.31a1.628,1.628,0,0,1,1.48.373,1.116,1.116,0,0,1,.3.676c-.191,0-.382,0-.572,0a.911.911,0,0,0-1.375-.419.463.463,0,0,0-.024.776c.538.3,1.233.234,1.722.643a1.078,1.078,0,0,1-.249,1.689,2.049,2.049,0,0,1-1.721.049,1.131,1.131,0,0,1-.666-.95c.193,0,.387,0,.582,0,.161.626,1.011.731,1.5.44a.478.478,0,0,0,.059-.805c-.513-.319-1.186-.243-1.677-.612a1.027,1.027,0,0,1-.248-1.242A1.205,1.205,0,0,1,762.933,284.31Z" transform="translate(-701.755 -262.108)"/><path d="M724.057,285.4q.3,0,.593,0c0,.909,0,1.819,0,2.728a1.123,1.123,0,0,1-.553,1.034,1.387,1.387,0,0,1-1.446-.141,1.088,1.088,0,0,1-.349-.8l.573,0a.575.575,0,0,0,.672.52.559.559,0,0,0,.509-.6C724.062,287.223,724.055,286.31,724.057,285.4Z" transform="translate(-665.345 -263.144)"/><path d="M704.126,324.23a.393.393,0,1,1-.166.656A.4.4,0,0,1,704.126,324.23Z" transform="translate(-648.353 -298.895)"/></g></g></svg>