<svg xmlns="http://www.w3.org/2000/svg" width="102" height="102" viewBox="0 0 102 102"><g transform="translate(-163 -312)"><circle cx="51" cy="51" r="51" transform="translate(163 312)" fill="#f6faff"/><g transform="translate(177.428 343.77)"><g transform="translate(1.26 0)"><path d="M63.015,19.031A68.446,68.446,0,0,1,79.84,18.2c.049.475.277.9.344,1.375-.686.035-1.367-.067-2.053-.062-.881-.061-1.765-.052-2.647-.067a69.6,69.6,0,0,0-9.644.584,55.375,55.375,0,0,0-11.51,2.746,37.866,37.866,0,0,0-5.9,2.7,24.879,24.879,0,0,0-4.662,3.391,13.708,13.708,0,0,0-3.581,5.123c-.24-.587-.495-1.168-.711-1.765a17.2,17.2,0,0,1,4.334-5.2,30.5,30.5,0,0,1,6.466-4.046A50.8,50.8,0,0,1,63.015,19.031Z" transform="translate(-39.48 -18.013)" fill="#a9add1"/></g><g transform="translate(0 0.183)"><path d="M59.663,21.12a62.754,62.754,0,0,1,10.18,1.557c.046.488.13.971.212,1.454a45.8,45.8,0,0,1,10.454,4,24.071,24.071,0,0,1,5.7,4.234,13.043,13.043,0,0,1,3.009,4.689,9.306,9.306,0,0,1,.132,5.818,12.523,12.523,0,0,1-2.88,4.817,22.4,22.4,0,0,1-4.806,3.84,42.374,42.374,0,0,1-12.111,4.753,66.477,66.477,0,0,1-15.481,1.7c-.725.012-1.448-.051-2.173-.047-1.2-.048-2.392-.118-3.585-.224a4.213,4.213,0,0,0-1-.049,27.775,27.775,0,0,1-3.3.619c-.3.031-.592.091-.888.14a50.045,50.045,0,0,1-13.694-4.314A29.59,29.59,0,0,1,23.407,50.2,19.238,19.238,0,0,1,20.8,47.505a12.933,12.933,0,0,1-2.417-4.7,10.391,10.391,0,0,1-.029-5.168,11.42,11.42,0,0,1,.948-2.492c.216.6.471,1.177.711,1.765A13.708,13.708,0,0,1,23.6,31.786,24.88,24.88,0,0,1,28.257,28.4a37.867,37.867,0,0,1,5.9-2.7,55.375,55.375,0,0,1,11.51-2.746,69.6,69.6,0,0,1,9.644-.584c.882.015,1.766.006,2.647.067.686-.005,1.367.1,2.053.062-.067-.471-.3-.9-.344-1.375m-9.015,4.849a1.268,1.268,0,0,0-.3.758c-.583,3.029-1.186,6.054-1.758,9.085A5.542,5.542,0,0,0,46.9,32.639a7.065,7.065,0,0,0-4.044-1.685,21.129,21.129,0,0,0-2.538-.082H33.381a.824.824,0,0,0-.637.246,1.441,1.441,0,0,0-.282.784Q30.632,41.322,28.8,50.742a.8.8,0,0,0,.758.984q2.092,0,4.182,0a.8.8,0,0,0,.8-.628c.3-1.5.583-3,.878-4.493,1.339-.011,2.678.026,4.015-.029A11.274,11.274,0,0,0,43,45.893a8.213,8.213,0,0,0,2.3-1.4,9.676,9.676,0,0,0,2.07-2.427c-.229,1.147-.445,2.3-.674,3.444a.979.979,0,0,0,.015.59.8.8,0,0,0,.778.5c1.374,0,2.748,0,4.122,0a.8.8,0,0,0,.785-.651q1.015-5.193,2.022-10.387h2.541a4.681,4.681,0,0,1,1.407.152c.128.043.281.109.3.263a3.036,3.036,0,0,1-.048,1.135q-.824,4.256-1.654,8.512a.8.8,0,0,0,.325.839.9.9,0,0,0,.553.14q2.025,0,4.051,0a1.091,1.091,0,0,0,.524-.128c-.282,1.38-.537,2.765-.814,4.147a.981.981,0,0,0,.022.625.792.792,0,0,0,.738.477q2.089,0,4.179,0a.8.8,0,0,0,.788-.638c.3-1.493.582-2.989.873-4.482a35.129,35.129,0,0,0,5.974-.254,8.192,8.192,0,0,0,2.906-1.119,9.371,9.371,0,0,0,4-5.362,8.911,8.911,0,0,0,.113-4.8,5.4,5.4,0,0,0-1.325-2.247,6,6,0,0,0-2.336-1.444,10.307,10.307,0,0,0-3.416-.507q-4,0-8,0a.8.8,0,0,0-.8.65c-.229,1.163-.457,2.327-.678,3.493a4.749,4.749,0,0,0-.272-1.335,3.585,3.585,0,0,0-1.595-1.872,8.087,8.087,0,0,0-3.52-.9c-1.307-.071-2.617-.023-3.925-.037.269-1.391.543-2.782.809-4.174a.8.8,0,0,0-.775-.949c-1.351-.008-2.7,0-4.054,0A.881.881,0,0,0,50.648,25.969Z" transform="translate(-18.043 -21.12)" fill="#777bb3"/><path d="M329.974,266.962c.1-.417.135-.85.264-1.256.417-.016.834,0,1.251-.005a10.075,10.075,0,0,1,2.816.217,1.261,1.261,0,0,1,.938.748,4.216,4.216,0,0,1-.018,2.045,4.871,4.871,0,0,1-1.115,2.445,3.288,3.288,0,0,1-1.678.839,16.918,16.918,0,0,1-3.471.183Q329.466,269.57,329.974,266.962Z" transform="translate(-310.683 -251.321)" fill="#777bb3"/><path d="M887.9,265.733h2.291a6.1,6.1,0,0,1,1.927.26,1.179,1.179,0,0,1,.8.678,3.657,3.657,0,0,1,.052,1.735,5.536,5.536,0,0,1-1.025,2.617,3.185,3.185,0,0,1-1.868,1.012,17.249,17.249,0,0,1-3.431.175Q887.269,268.972,887.9,265.733Z" transform="translate(-835.581 -251.353)" fill="#777bb3"/></g><g transform="translate(25.08 1.739)"><path d="M471.41,47.6a45.836,45.836,0,0,1,11.017,4.1,26.934,26.934,0,0,1,5.992,4.3,15.364,15.364,0,0,1,3.439,4.843,10.766,10.766,0,0,1,.893,4.067A11.255,11.255,0,0,1,490.93,71.1a18.727,18.727,0,0,1-4.424,4.742,32.082,32.082,0,0,1-6.385,3.786,47.071,47.071,0,0,1-7.006,2.511A61.047,61.047,0,0,1,462.815,84a68.989,68.989,0,0,1-17.649-.571c-.159-.028-.319-.056-.477-.089.3-.049.59-.11.888-.14a27.776,27.776,0,0,0,3.3-.619,4.213,4.213,0,0,1,1,.049c1.193.106,2.389.176,3.585.224.725,0,1.448.059,2.173.047a66.478,66.478,0,0,0,15.481-1.7,42.375,42.375,0,0,0,12.111-4.753,22.4,22.4,0,0,0,4.806-3.84,12.522,12.522,0,0,0,2.88-4.817,9.306,9.306,0,0,0-.132-5.818,13.042,13.042,0,0,0-3.008-4.689,24.071,24.071,0,0,0-5.7-4.234,45.8,45.8,0,0,0-10.454-4C471.539,48.571,471.456,48.088,471.41,47.6Z" transform="translate(-444.69 -47.6)" fill="#4c508c"/></g><g transform="translate(10.73 4.806)"><path d="M222.444,100a.881.881,0,0,1,.662-.225c1.351,0,2.7,0,4.054,0a.8.8,0,0,1,.775.949c-.266,1.392-.541,2.782-.809,4.174,1.308.014,2.618-.034,3.925.037a8.088,8.088,0,0,1,3.52.9,3.585,3.585,0,0,1,1.595,1.872,4.75,4.75,0,0,1,.272,1.335c.22-1.166.449-2.33.678-3.493a.8.8,0,0,1,.8-.65q4,0,8,0a10.307,10.307,0,0,1,3.416.507,6,6,0,0,1,2.336,1.444,5.4,5.4,0,0,1,1.325,2.247,8.911,8.911,0,0,1-.113,4.8,9.37,9.37,0,0,1-4,5.362,8.192,8.192,0,0,1-2.906,1.119,35.131,35.131,0,0,1-5.974.254c-.291,1.494-.578,2.989-.873,4.482a.8.8,0,0,1-.788.638q-2.09,0-4.179,0a.792.792,0,0,1-.738-.477.981.981,0,0,1-.022-.625c.277-1.381.531-2.767.814-4.147a1.091,1.091,0,0,1-.524.128q-2.025,0-4.051,0a.9.9,0,0,1-.553-.14.8.8,0,0,1-.325-.839q.825-4.256,1.654-8.512a3.037,3.037,0,0,0,.048-1.135c-.017-.154-.17-.22-.3-.263a4.681,4.681,0,0,0-1.407-.152h-2.541q-1.016,5.193-2.022,10.387a.8.8,0,0,1-.785.651c-1.374.005-2.748,0-4.122,0a.8.8,0,0,1-.778-.5.979.979,0,0,1-.015-.59c.229-1.147.445-2.3.674-3.444a9.676,9.676,0,0,1-2.07,2.427,8.213,8.213,0,0,1-2.3,1.4,11.274,11.274,0,0,1-3.566.683c-1.337.056-2.676.018-4.015.029-.3,1.5-.578,3-.878,4.493a.8.8,0,0,1-.8.628q-2.092,0-4.182,0a.8.8,0,0,1-.758-.984q1.831-9.421,3.663-18.841a1.441,1.441,0,0,1,.282-.784.824.824,0,0,1,.637-.246h6.938a21.128,21.128,0,0,1,2.538.082,7.065,7.065,0,0,1,4.044,1.685,5.542,5.542,0,0,1,1.691,3.174c.572-3.031,1.176-6.056,1.758-9.085a1.268,1.268,0,0,1,.3-.758m.549.571q-1.875,9.637-3.748,19.273h4.167q1.072-5.522,2.147-11.044h3.014a6.066,6.066,0,0,1,1.793.18,1.163,1.163,0,0,1,.79.63,3.169,3.169,0,0,1,.027,1.731q-.825,4.252-1.653,8.5h4.234q.8-4.1,1.592-8.192a7.256,7.256,0,0,0,.152-3.4,2.833,2.833,0,0,0-1.439-1.785,8.5,8.5,0,0,0-3.669-.763c-1.412-.019-2.823,0-4.235-.008q.5-2.562,1-5.122h-4.167m-17.88,5.122q-1.873,9.637-3.747,19.273h4.2q.5-2.562,1-5.122c1.167,0,2.334,0,3.5,0a14.016,14.016,0,0,0,3.758-.424,7.335,7.335,0,0,0,2.873-1.592,8.678,8.678,0,0,0,2.006-2.519,9.155,9.155,0,0,0,.932-3.129,6.5,6.5,0,0,0-.371-3.374,4.715,4.715,0,0,0-2.162-2.3,8.488,8.488,0,0,0-3.927-.811q-4.03,0-8.059,0m32.783,0q-1.874,9.637-3.747,19.273h4.2q.5-2.561,1-5.122c1.172,0,2.344,0,3.516,0a13.6,13.6,0,0,0,3.9-.469,8.024,8.024,0,0,0,3.824-2.692,8.533,8.533,0,0,0,1.791-4.192,7.293,7.293,0,0,0-.109-3.067,4.65,4.65,0,0,0-1.068-1.919,5.212,5.212,0,0,0-2.208-1.378,9.719,9.719,0,0,0-3.072-.432Q241.9,105.691,237.9,105.693Z" transform="translate(-200.569 -99.774)" fill="#fff"/><path d="M314.139,252.2c.935,0,1.871,0,2.807,0a7.284,7.284,0,0,1,2.361.316,1.969,1.969,0,0,1,1.165.964,3.984,3.984,0,0,1,.172,2.293,6.076,6.076,0,0,1-1.283,3.116,3.988,3.988,0,0,1-2.176,1.175,10.5,10.5,0,0,1-2.241.205H312.57q.784-4.035,1.569-8.069m.409,2.057q-.507,2.608-1.014,5.216a16.917,16.917,0,0,0,3.471-.183,3.288,3.288,0,0,0,1.678-.839A4.87,4.87,0,0,0,319.8,256a4.215,4.215,0,0,0,.018-2.045,1.261,1.261,0,0,0-.938-.748,10.071,10.071,0,0,0-2.816-.217c-.417.006-.834-.011-1.251.005C314.683,253.4,314.644,253.837,314.548,254.253Z" transform="translate(-305.986 -243.236)" fill="#fff"/><path d="M871.81,252.168c1.158.009,2.317-.019,3.475.018a4.391,4.391,0,0,1,2.364.657,2.217,2.217,0,0,1,.749,1.781,8.049,8.049,0,0,1-.437,2.576,4.181,4.181,0,0,1-1.622,2.245,6.178,6.178,0,0,1-3,.775c-1.033.031-2.066.009-3.1.016q.785-4.035,1.57-8.069m.653.8q-.63,3.239-1.259,6.477a17.25,17.25,0,0,0,3.431-.175,3.185,3.185,0,0,0,1.868-1.012,5.534,5.534,0,0,0,1.025-2.617,3.66,3.66,0,0,0-.052-1.735,1.179,1.179,0,0,0-.8-.678,6.1,6.1,0,0,0-1.928-.26Z" transform="translate(-830.874 -243.208)" fill="#fff"/></g><g transform="translate(11.526 5.603)"><path d="M522.028,113.33h4.167q-.5,2.561-1,5.122c1.412,0,2.823-.011,4.235.008a8.5,8.5,0,0,1,3.669.763,2.834,2.834,0,0,1,1.439,1.785,7.257,7.257,0,0,1-.152,3.4q-.8,4.1-1.592,8.192h-4.234q.826-4.252,1.653-8.5a3.17,3.17,0,0,0-.027-1.731,1.163,1.163,0,0,0-.79-.63,6.067,6.067,0,0,0-1.793-.18h-3.014q-1.074,5.522-2.147,11.044H518.28Q520.154,122.967,522.028,113.33Z" transform="translate(-500.4 -113.33)"/><path d="M217.867,200.462q4.03,0,8.059,0a8.488,8.488,0,0,1,3.927.811,4.715,4.715,0,0,1,2.162,2.3,6.5,6.5,0,0,1,.371,3.374,9.155,9.155,0,0,1-.932,3.129,8.678,8.678,0,0,1-2.006,2.519,7.335,7.335,0,0,1-2.873,1.592,14.015,14.015,0,0,1-3.758.424c-1.167,0-2.334,0-3.5,0q-.5,2.561-1,5.122h-4.2q1.874-9.637,3.747-19.273m3.609,3.041q-.784,4.035-1.569,8.069h2.374a10.5,10.5,0,0,0,2.241-.205,3.988,3.988,0,0,0,2.176-1.175,6.076,6.076,0,0,0,1.283-3.116,3.983,3.983,0,0,0-.172-2.293,1.969,1.969,0,0,0-1.165-.964,7.284,7.284,0,0,0-2.361-.316C223.347,203.5,222.411,203.5,221.476,203.5Z" transform="translate(-214.12 -195.34)"/><path d="M775.547,200.466q4.009,0,8.018,0a9.72,9.72,0,0,1,3.072.432,5.212,5.212,0,0,1,2.208,1.378,4.651,4.651,0,0,1,1.068,1.919,7.293,7.293,0,0,1,.109,3.067,8.533,8.533,0,0,1-1.791,4.192,8.023,8.023,0,0,1-3.824,2.692,13.6,13.6,0,0,1-3.9.469c-1.172,0-2.344,0-3.516,0q-.5,2.561-1,5.122h-4.2q1.873-9.637,3.747-19.273m3.609,3.041q-.786,4.034-1.57,8.069c1.033-.006,2.067.015,3.1-.016a6.177,6.177,0,0,0,3-.775,4.18,4.18,0,0,0,1.622-2.245,8.049,8.049,0,0,0,.437-2.576,2.217,2.217,0,0,0-.749-1.781,4.391,4.391,0,0,0-2.364-.657C781.473,203.488,780.314,203.516,779.156,203.507Z" transform="translate(-739.017 -195.344)"/></g></g></g></svg>