<svg xmlns="http://www.w3.org/2000/svg" width="102" height="102" viewBox="0 0 102 102"><g transform="translate(-36 -338)"><circle cx="51" cy="51" r="51" transform="translate(36 338)" fill="#f6faff"/><g transform="translate(55.532 361)"><path d="M29.95,44.9a5.236,5.236,0,0,1,3.7-2,11.814,11.814,0,0,1,6.137,1.418,30.889,30.889,0,0,1,7.506,5.439,33.369,33.369,0,0,1,6.036-4.712,14.335,14.335,0,0,1,6.459-2.234,5.468,5.468,0,0,1,4.109,1.422,9.345,9.345,0,0,1,2.416,5.4,28.682,28.682,0,0,1-.8,10.678,28.247,28.247,0,0,1,10,4.859,8.483,8.483,0,0,1,3.127,4.694,5.973,5.973,0,0,1-1.346,4.662,15.607,15.607,0,0,1-4.649,3.864,33.028,33.028,0,0,1-7,2.928,29.16,29.16,0,0,1,.868,9.747,11.089,11.089,0,0,1-1.964,5.606,5.352,5.352,0,0,1-3.559,2.069,10.745,10.745,0,0,1-5.808-1.164,29.866,29.866,0,0,1-7.8-5.632,27.968,27.968,0,0,1-8.679,5.917,9.4,9.4,0,0,1-6.208.612,5.976,5.976,0,0,1-3.577-3.609,17.142,17.142,0,0,1-.864-7.731,36.671,36.671,0,0,1,.964-5.667,30.869,30.869,0,0,1-7.689-3.31,14.875,14.875,0,0,1-4.185-3.694,6.291,6.291,0,0,1-1.346-3.925,6.729,6.729,0,0,1,1.774-4.03,16.251,16.251,0,0,1,4.607-3.526,34.482,34.482,0,0,1,6.872-2.708A30.617,30.617,0,0,1,28.031,50.7a10.817,10.817,0,0,1,1.919-5.8m1.881,2a9.021,9.021,0,0,0-1.109,3.924,27.724,27.724,0,0,0,.926,8.785A66.561,66.561,0,0,1,40.056,58.3a66.251,66.251,0,0,1,5.35-6.624A27.053,27.053,0,0,0,37.852,46.4a7.963,7.963,0,0,0-4.2-.769A2.588,2.588,0,0,0,31.832,46.9m23.118.314a30.558,30.558,0,0,0-5.774,4.467A66.09,66.09,0,0,1,54.5,58.315a63.249,63.249,0,0,1,8.412,1.327,29.127,29.127,0,0,0,.907-7.751,11.715,11.715,0,0,0-.908-4.431A3.262,3.262,0,0,0,61.262,45.7a4.605,4.605,0,0,0-2.51-.049,13.708,13.708,0,0,0-3.8,1.56M43.564,58.06q3.708-.163,7.419,0c-1.158-1.545-2.384-3.038-3.69-4.46-1.318,1.42-2.552,2.917-3.728,4.456M41.67,60.876c-.167-.009-.231.173-.322.277A77.038,77.038,0,0,0,35.8,70.806a74.089,74.089,0,0,0,5.762,9.959,86.375,86.375,0,0,0,11.289-.016.292.292,0,0,0,.287-.179,86.18,86.18,0,0,0,5.606-9.789A86.3,86.3,0,0,0,53.1,61.048c-.117-.252-.433-.171-.655-.209a75.92,75.92,0,0,0-10.778.037m-9.293,1.332c.567,1.86,1.268,3.674,2,5.477a69.915,69.915,0,0,1,3.723-6.46c-1.919.249-3.832.562-5.721.983m24.051-.983c1.347,2.085,2.576,4.246,3.74,6.438.76-1.776,1.439-3.589,2.018-5.432-1.9-.435-3.824-.759-5.758-1.006M21.463,66.6a7.639,7.639,0,0,0-2.843,3.344,2.963,2.963,0,0,0,.452,2.576,11.176,11.176,0,0,0,3.463,3.231,27.859,27.859,0,0,0,7.19,3.122,69.857,69.857,0,0,1,3.1-8.071,64.367,64.367,0,0,1-3.063-7.937,26.887,26.887,0,0,0-8.3,3.736m43.326-3.7a67.435,67.435,0,0,1-3.061,7.875,63.014,63.014,0,0,1,3.18,7.957,30.348,30.348,0,0,0,6.284-2.611,13.236,13.236,0,0,0,3.958-3.22,3.44,3.44,0,0,0,.857-2.513,4.884,4.884,0,0,0-1.427-2.427,15.479,15.479,0,0,0-3.842-2.731,31.484,31.484,0,0,0-5.948-2.33M56.425,80.423c1.976-.255,3.945-.566,5.887-1.011A58.436,58.436,0,0,0,60.2,73.874c-1.162,2.236-2.414,4.425-3.77,6.549M34.372,73.958c-.748,1.831-1.455,3.682-2.041,5.574,1.915.419,3.857.71,5.8.939-1.355-2.11-2.624-4.278-3.762-6.513m20.179,9.348a68.053,68.053,0,0,1-5.306,6.71,33.989,33.989,0,0,0,3.776,3.168,15.7,15.7,0,0,0,5.957,2.826,3.481,3.481,0,0,0,3.165-.668,7.418,7.418,0,0,0,1.65-4.091A25.437,25.437,0,0,0,63.048,82a62.552,62.552,0,0,1-8.5,1.306m-23.622,9A5.049,5.049,0,0,0,32.9,95.745a5.737,5.737,0,0,0,4.184-.14,24.27,24.27,0,0,0,8.4-5.57A64.048,64.048,0,0,1,40.2,83.52a.369.369,0,0,0-.36-.188,62.008,62.008,0,0,1-8.235-1.206A24.229,24.229,0,0,0,30.929,92.3m12.637-8.744c1.21,1.56,2.458,3.093,3.8,4.541,1.317-1.452,2.538-2.984,3.709-4.555C48.574,83.658,46.067,83.655,43.565,83.557Z" transform="translate(-15.78 -42.806)" fill="#00d8ff"/><path d="M217.155,212.94a5.623,5.623,0,1,1-4.322,4.377A5.641,5.641,0,0,1,217.155,212.94Z" transform="translate(-186.866 -190.496)" fill="#00d8ff"/></g></g></svg>