<svg xmlns="http://www.w3.org/2000/svg" width="102" height="102" viewBox="0 0 102 102"><g transform="translate(-290 -428)"><circle cx="51" cy="51" r="51" transform="translate(290 428)" fill="#f6faff"/><g transform="translate(311.655 421.029)"><path d="M33.726,32.04A45.372,45.372,0,0,1,46.74,44.58a25.855,25.855,0,0,1,4.435,14.276,19.8,19.8,0,0,1-1.2,6.865,23.457,23.457,0,0,1,3.078,4.629,14.805,14.805,0,0,1,1.654,5.762v.844a9.138,9.138,0,0,1-.647,2.945,11.358,11.358,0,0,0-4.122-3.775,7.265,7.265,0,0,0-4.857-.691A20.094,20.094,0,0,0,40.6,77.318a23.568,23.568,0,0,1-5.218,1.994,25.633,25.633,0,0,1-7.914.494A34.233,34.233,0,0,1,12,74.852,38.251,38.251,0,0,1,0,63.218v-.056a39.777,39.777,0,0,0,13.2,5.7,27.172,27.172,0,0,0,13.339-.331,18.724,18.724,0,0,0,4.436-1.892,37.3,37.3,0,0,1-6.33-5.067c-3.231-3.08-6.254-6.371-9.2-9.718Q10.1,45.761,5.075,39.4c5.41,4.484,10.91,8.872,16.7,12.855,1.712,1.158,3.434,2.308,5.248,3.3a23.852,23.852,0,0,1-2.3-2.3c-1.384-1.542-2.687-3.153-3.973-4.776-3.03-3.849-5.938-7.792-8.786-11.777,2.534,2.479,5.217,4.8,7.953,7.051,6.01,4.916,12.239,9.557,18.585,14.03a23.264,23.264,0,0,0,1-3.51,25.384,25.384,0,0,0-.966-12.994A32.662,32.662,0,0,0,33.726,32.04Z" fill="#ff5722"/></g></g></svg>